<mxfile host="app.diagrams.net" modified="2024-04-12T07:33:00.164Z" agent="Mozilla/5.0 (Windows NT 10.0; Win64; x64) AppleWebKit/537.36 (KHTML, like Gecko) Chrome/123.0.0.0 Safari/537.36" etag="_BcLibfcNBDSCeCppg8U" version="24.2.3" type="device">
  <diagram id="R2lEEEUBdFMjLlhIrx00" name="Page-1">
    <mxGraphModel dx="2759" dy="1118" grid="1" gridSize="10" guides="1" tooltips="1" connect="1" arrows="1" fold="1" page="1" pageScale="1" pageWidth="850" pageHeight="1100" math="0" shadow="0" extFonts="Permanent Marker^https://fonts.googleapis.com/css?family=Permanent+Marker">
      <root>
        <mxCell id="0" />
        <mxCell id="1" parent="0" />
        <mxCell id="256RreKp1Q9fWOY7JlpU-48" style="edgeStyle=none;curved=1;rounded=0;orthogonalLoop=1;jettySize=auto;html=1;fontSize=12;startSize=8;endSize=8;" edge="1" parent="1" source="256RreKp1Q9fWOY7JlpU-40" target="256RreKp1Q9fWOY7JlpU-42">
          <mxGeometry relative="1" as="geometry" />
        </mxCell>
        <mxCell id="256RreKp1Q9fWOY7JlpU-49" style="edgeStyle=none;curved=1;rounded=0;orthogonalLoop=1;jettySize=auto;html=1;entryX=0;entryY=0.5;entryDx=0;entryDy=0;fontSize=12;startSize=8;endSize=8;" edge="1" parent="1" source="256RreKp1Q9fWOY7JlpU-40" target="256RreKp1Q9fWOY7JlpU-41">
          <mxGeometry relative="1" as="geometry" />
        </mxCell>
        <mxCell id="256RreKp1Q9fWOY7JlpU-154" style="edgeStyle=none;curved=1;rounded=0;orthogonalLoop=1;jettySize=auto;html=1;entryX=0;entryY=0.5;entryDx=0;entryDy=0;fontSize=12;startSize=8;endSize=8;" edge="1" parent="1" source="256RreKp1Q9fWOY7JlpU-40" target="256RreKp1Q9fWOY7JlpU-153">
          <mxGeometry relative="1" as="geometry" />
        </mxCell>
        <mxCell id="256RreKp1Q9fWOY7JlpU-40" value="sge grados" style="rounded=0;whiteSpace=wrap;html=1;" vertex="1" parent="1">
          <mxGeometry x="-650" y="430" width="120" height="60" as="geometry" />
        </mxCell>
        <mxCell id="256RreKp1Q9fWOY7JlpU-41" value="&lt;b style=&quot;text-align: left; text-wrap: nowrap;&quot;&gt;&lt;u&gt;nombre:varchar(20)&lt;/u&gt;&lt;/b&gt;" style="ellipse;whiteSpace=wrap;html=1;" vertex="1" parent="1">
          <mxGeometry x="-510" y="550" width="120" height="55" as="geometry" />
        </mxCell>
        <mxCell id="256RreKp1Q9fWOY7JlpU-42" value="&lt;span style=&quot;font-weight: 700; text-align: left; text-wrap: nowrap; text-decoration-line: underline;&quot;&gt;id_grado:int(11)&lt;/span&gt;" style="ellipse;whiteSpace=wrap;html=1;" vertex="1" parent="1">
          <mxGeometry x="-490" y="310" width="100" height="65" as="geometry" />
        </mxCell>
        <mxCell id="256RreKp1Q9fWOY7JlpU-46" style="edgeStyle=none;curved=1;rounded=0;orthogonalLoop=1;jettySize=auto;html=1;entryX=0.5;entryY=0;entryDx=0;entryDy=0;fontSize=12;startSize=8;endSize=8;" edge="1" parent="1" source="256RreKp1Q9fWOY7JlpU-43" target="256RreKp1Q9fWOY7JlpU-45">
          <mxGeometry relative="1" as="geometry" />
        </mxCell>
        <mxCell id="256RreKp1Q9fWOY7JlpU-47" style="edgeStyle=none;curved=1;rounded=0;orthogonalLoop=1;jettySize=auto;html=1;fontSize=12;startSize=8;endSize=8;" edge="1" parent="1" source="256RreKp1Q9fWOY7JlpU-43" target="256RreKp1Q9fWOY7JlpU-44">
          <mxGeometry relative="1" as="geometry" />
        </mxCell>
        <mxCell id="256RreKp1Q9fWOY7JlpU-43" value="sge trimestres" style="rounded=0;whiteSpace=wrap;html=1;" vertex="1" parent="1">
          <mxGeometry x="-160" y="70" width="120" height="60" as="geometry" />
        </mxCell>
        <mxCell id="256RreKp1Q9fWOY7JlpU-44" value="&lt;b style=&quot;text-align: left; text-wrap: nowrap;&quot;&gt;&lt;u&gt;nombre : varchar(50)&lt;/u&gt;&lt;/b&gt;" style="ellipse;whiteSpace=wrap;html=1;" vertex="1" parent="1">
          <mxGeometry x="-80" y="180" width="120" height="55" as="geometry" />
        </mxCell>
        <mxCell id="256RreKp1Q9fWOY7JlpU-45" value="&lt;span style=&quot;font-weight: 700; text-align: left; text-wrap: nowrap; text-decoration-line: underline;&quot;&gt;id_trimestre : int(11)&lt;/span&gt;" style="ellipse;whiteSpace=wrap;html=1;" vertex="1" parent="1">
          <mxGeometry x="-230" y="180" width="100" height="65" as="geometry" />
        </mxCell>
        <mxCell id="256RreKp1Q9fWOY7JlpU-55" style="edgeStyle=none;curved=1;rounded=0;orthogonalLoop=1;jettySize=auto;html=1;entryX=0;entryY=0.5;entryDx=0;entryDy=0;fontSize=12;startSize=8;endSize=8;" edge="1" parent="1" source="256RreKp1Q9fWOY7JlpU-50" target="256RreKp1Q9fWOY7JlpU-51">
          <mxGeometry relative="1" as="geometry" />
        </mxCell>
        <mxCell id="256RreKp1Q9fWOY7JlpU-56" style="edgeStyle=none;curved=1;rounded=0;orthogonalLoop=1;jettySize=auto;html=1;entryX=0;entryY=0.5;entryDx=0;entryDy=0;fontSize=12;startSize=8;endSize=8;" edge="1" parent="1" source="256RreKp1Q9fWOY7JlpU-50" target="256RreKp1Q9fWOY7JlpU-52">
          <mxGeometry relative="1" as="geometry" />
        </mxCell>
        <mxCell id="256RreKp1Q9fWOY7JlpU-57" style="edgeStyle=none;curved=1;rounded=0;orthogonalLoop=1;jettySize=auto;html=1;fontSize=12;startSize=8;endSize=8;" edge="1" parent="1" source="256RreKp1Q9fWOY7JlpU-50" target="256RreKp1Q9fWOY7JlpU-54">
          <mxGeometry relative="1" as="geometry" />
        </mxCell>
        <mxCell id="256RreKp1Q9fWOY7JlpU-50" value="sge secciones" style="rounded=0;whiteSpace=wrap;html=1;" vertex="1" parent="1">
          <mxGeometry x="-300" y="480" width="120" height="60" as="geometry" />
        </mxCell>
        <mxCell id="256RreKp1Q9fWOY7JlpU-51" value="&lt;b style=&quot;text-align: left; text-wrap: nowrap;&quot;&gt;&lt;u&gt;nombre:varchar(100)&lt;/u&gt;&lt;/b&gt;" style="ellipse;whiteSpace=wrap;html=1;" vertex="1" parent="1">
          <mxGeometry x="-110" y="405" width="120" height="55" as="geometry" />
        </mxCell>
        <mxCell id="256RreKp1Q9fWOY7JlpU-52" value="&lt;span style=&quot;font-weight: 700; text-align: left; text-wrap: nowrap; text-decoration-line: underline;&quot;&gt;id_seccion : int(11)&lt;/span&gt;" style="ellipse;whiteSpace=wrap;html=1;" vertex="1" parent="1">
          <mxGeometry x="-110" y="485" width="100" height="65" as="geometry" />
        </mxCell>
        <mxCell id="256RreKp1Q9fWOY7JlpU-53" value="&lt;b style=&quot;text-align: left; text-wrap: nowrap;&quot;&gt;&lt;u&gt;id_profesor : int(11)&lt;/u&gt;&lt;/b&gt;" style="ellipse;whiteSpace=wrap;html=1;" vertex="1" parent="1">
          <mxGeometry x="-140" y="635" width="120" height="55" as="geometry" />
        </mxCell>
        <mxCell id="256RreKp1Q9fWOY7JlpU-54" value="&lt;b style=&quot;text-align: left; text-wrap: nowrap;&quot;&gt;&lt;u&gt;id_grado : int(11)&lt;/u&gt;&lt;/b&gt;" style="ellipse;whiteSpace=wrap;html=1;" vertex="1" parent="1">
          <mxGeometry x="-120" y="570" width="100" height="65" as="geometry" />
        </mxCell>
        <mxCell id="256RreKp1Q9fWOY7JlpU-58" style="edgeStyle=none;curved=1;rounded=0;orthogonalLoop=1;jettySize=auto;html=1;entryX=0.016;entryY=0.582;entryDx=0;entryDy=0;entryPerimeter=0;fontSize=12;startSize=8;endSize=8;" edge="1" parent="1" source="256RreKp1Q9fWOY7JlpU-50" target="256RreKp1Q9fWOY7JlpU-53">
          <mxGeometry relative="1" as="geometry" />
        </mxCell>
        <mxCell id="256RreKp1Q9fWOY7JlpU-72" style="edgeStyle=none;curved=1;rounded=0;orthogonalLoop=1;jettySize=auto;html=1;entryX=0;entryY=0.5;entryDx=0;entryDy=0;fontSize=12;startSize=8;endSize=8;" edge="1" parent="1" source="256RreKp1Q9fWOY7JlpU-75" target="256RreKp1Q9fWOY7JlpU-76">
          <mxGeometry relative="1" as="geometry" />
        </mxCell>
        <mxCell id="256RreKp1Q9fWOY7JlpU-73" style="edgeStyle=none;curved=1;rounded=0;orthogonalLoop=1;jettySize=auto;html=1;entryX=0;entryY=0.5;entryDx=0;entryDy=0;fontSize=12;startSize=8;endSize=8;" edge="1" parent="1" source="256RreKp1Q9fWOY7JlpU-75" target="256RreKp1Q9fWOY7JlpU-77">
          <mxGeometry relative="1" as="geometry" />
        </mxCell>
        <mxCell id="256RreKp1Q9fWOY7JlpU-74" style="edgeStyle=none;curved=1;rounded=0;orthogonalLoop=1;jettySize=auto;html=1;fontSize=12;startSize=8;endSize=8;" edge="1" parent="1" source="256RreKp1Q9fWOY7JlpU-75" target="256RreKp1Q9fWOY7JlpU-79">
          <mxGeometry relative="1" as="geometry" />
        </mxCell>
        <mxCell id="256RreKp1Q9fWOY7JlpU-90" style="edgeStyle=none;curved=1;rounded=0;orthogonalLoop=1;jettySize=auto;html=1;entryX=0;entryY=0.5;entryDx=0;entryDy=0;fontSize=12;startSize=8;endSize=8;" edge="1" parent="1" source="256RreKp1Q9fWOY7JlpU-75" target="256RreKp1Q9fWOY7JlpU-84">
          <mxGeometry relative="1" as="geometry" />
        </mxCell>
        <mxCell id="256RreKp1Q9fWOY7JlpU-91" style="edgeStyle=none;curved=1;rounded=0;orthogonalLoop=1;jettySize=auto;html=1;entryX=0;entryY=0.5;entryDx=0;entryDy=0;fontSize=12;startSize=8;endSize=8;" edge="1" parent="1" source="256RreKp1Q9fWOY7JlpU-75" target="256RreKp1Q9fWOY7JlpU-85">
          <mxGeometry relative="1" as="geometry" />
        </mxCell>
        <mxCell id="256RreKp1Q9fWOY7JlpU-92" style="edgeStyle=none;curved=1;rounded=0;orthogonalLoop=1;jettySize=auto;html=1;fontSize=12;startSize=8;endSize=8;entryX=0;entryY=0.5;entryDx=0;entryDy=0;" edge="1" parent="1" source="256RreKp1Q9fWOY7JlpU-75" target="256RreKp1Q9fWOY7JlpU-87">
          <mxGeometry relative="1" as="geometry">
            <mxPoint x="-210" y="1840" as="targetPoint" />
          </mxGeometry>
        </mxCell>
        <mxCell id="256RreKp1Q9fWOY7JlpU-93" style="edgeStyle=none;curved=1;rounded=0;orthogonalLoop=1;jettySize=auto;html=1;entryX=0;entryY=0.5;entryDx=0;entryDy=0;fontSize=12;startSize=8;endSize=8;" edge="1" parent="1" source="256RreKp1Q9fWOY7JlpU-75" target="256RreKp1Q9fWOY7JlpU-86">
          <mxGeometry relative="1" as="geometry" />
        </mxCell>
        <mxCell id="256RreKp1Q9fWOY7JlpU-94" style="edgeStyle=none;curved=1;rounded=0;orthogonalLoop=1;jettySize=auto;html=1;entryX=0;entryY=0.5;entryDx=0;entryDy=0;fontSize=12;startSize=8;endSize=8;" edge="1" parent="1" source="256RreKp1Q9fWOY7JlpU-75" target="256RreKp1Q9fWOY7JlpU-89">
          <mxGeometry relative="1" as="geometry" />
        </mxCell>
        <mxCell id="256RreKp1Q9fWOY7JlpU-75" value="sge profesores" style="rounded=0;whiteSpace=wrap;html=1;" vertex="1" parent="1">
          <mxGeometry x="-450" y="1425" width="120" height="60" as="geometry" />
        </mxCell>
        <mxCell id="256RreKp1Q9fWOY7JlpU-76" value="&lt;span style=&quot;font-weight: 700; text-align: left; text-wrap: nowrap; text-decoration-line: underline;&quot;&gt;id_profesor: int(11)&lt;/span&gt;" style="ellipse;whiteSpace=wrap;html=1;" vertex="1" parent="1">
          <mxGeometry x="-170" y="1320" width="120" height="55" as="geometry" />
        </mxCell>
        <mxCell id="256RreKp1Q9fWOY7JlpU-77" value="&lt;b style=&quot;text-align: left; text-wrap: nowrap;&quot;&gt;&lt;u&gt;nombre:varchar(30)&lt;/u&gt;&lt;/b&gt;" style="ellipse;whiteSpace=wrap;html=1;" vertex="1" parent="1">
          <mxGeometry x="-170" y="1400" width="100" height="65" as="geometry" />
        </mxCell>
        <mxCell id="256RreKp1Q9fWOY7JlpU-78" value="&lt;b style=&quot;text-align: left; text-wrap: nowrap;&quot;&gt;&lt;u&gt;fecha de nacimiento: date&lt;/u&gt;&lt;/b&gt;" style="ellipse;whiteSpace=wrap;html=1;" vertex="1" parent="1">
          <mxGeometry x="-200" y="1550" width="120" height="55" as="geometry" />
        </mxCell>
        <mxCell id="256RreKp1Q9fWOY7JlpU-79" value="&lt;b style=&quot;text-align: left; text-wrap: nowrap;&quot;&gt;&lt;u&gt;apellidos:varchar(30)&lt;/u&gt;&lt;/b&gt;" style="ellipse;whiteSpace=wrap;html=1;" vertex="1" parent="1">
          <mxGeometry x="-180" y="1485" width="100" height="65" as="geometry" />
        </mxCell>
        <mxCell id="256RreKp1Q9fWOY7JlpU-80" style="edgeStyle=none;curved=1;rounded=0;orthogonalLoop=1;jettySize=auto;html=1;entryX=0.016;entryY=0.582;entryDx=0;entryDy=0;entryPerimeter=0;fontSize=12;startSize=8;endSize=8;" edge="1" parent="1" source="256RreKp1Q9fWOY7JlpU-75" target="256RreKp1Q9fWOY7JlpU-78">
          <mxGeometry relative="1" as="geometry" />
        </mxCell>
        <mxCell id="256RreKp1Q9fWOY7JlpU-84" value="&lt;b style=&quot;text-align: left; text-wrap: nowrap;&quot;&gt;&lt;u&gt;telefono : varchar(10)&lt;/u&gt;&lt;/b&gt;" style="ellipse;whiteSpace=wrap;html=1;" vertex="1" parent="1">
          <mxGeometry x="-190" y="1640" width="120" height="55" as="geometry" />
        </mxCell>
        <mxCell id="256RreKp1Q9fWOY7JlpU-85" value="&lt;b style=&quot;text-align: left; text-wrap: nowrap;&quot;&gt;&lt;u&gt;direccion: varchar(200)&lt;/u&gt;&lt;/b&gt;" style="ellipse;whiteSpace=wrap;html=1;" vertex="1" parent="1">
          <mxGeometry x="-190" y="1720" width="100" height="65" as="geometry" />
        </mxCell>
        <mxCell id="256RreKp1Q9fWOY7JlpU-86" value="&lt;b style=&quot;text-align: left; text-wrap: nowrap;&quot;&gt;&lt;u&gt;id_grado : int(11)&lt;/u&gt;&lt;/b&gt;" style="ellipse;whiteSpace=wrap;html=1;" vertex="1" parent="1">
          <mxGeometry x="-220" y="1870" width="120" height="55" as="geometry" />
        </mxCell>
        <mxCell id="256RreKp1Q9fWOY7JlpU-87" value="&lt;b style=&quot;text-align: left; text-wrap: nowrap;&quot;&gt;&lt;u&gt;genero : enum(&#39;masculino&#39;,&#39;femenino,&#39;otro&#39;)&lt;/u&gt;&lt;/b&gt;" style="ellipse;whiteSpace=wrap;html=1;" vertex="1" parent="1">
          <mxGeometry x="-200" y="1805" width="290" height="65" as="geometry" />
        </mxCell>
        <mxCell id="256RreKp1Q9fWOY7JlpU-89" value="&lt;b style=&quot;text-align: left; text-wrap: nowrap;&quot;&gt;&lt;u&gt;id_usuario : int(11)&lt;/u&gt;&lt;/b&gt;" style="ellipse;whiteSpace=wrap;html=1;" vertex="1" parent="1">
          <mxGeometry x="-220" y="1960" width="120" height="55" as="geometry" />
        </mxCell>
        <mxCell id="256RreKp1Q9fWOY7JlpU-95" style="edgeStyle=none;curved=1;rounded=0;orthogonalLoop=1;jettySize=auto;html=1;entryX=0;entryY=0.5;entryDx=0;entryDy=0;fontSize=12;startSize=8;endSize=8;" edge="1" parent="1" source="256RreKp1Q9fWOY7JlpU-98" target="256RreKp1Q9fWOY7JlpU-99">
          <mxGeometry relative="1" as="geometry" />
        </mxCell>
        <mxCell id="256RreKp1Q9fWOY7JlpU-96" style="edgeStyle=none;curved=1;rounded=0;orthogonalLoop=1;jettySize=auto;html=1;entryX=0;entryY=0.5;entryDx=0;entryDy=0;fontSize=12;startSize=8;endSize=8;" edge="1" parent="1" source="256RreKp1Q9fWOY7JlpU-98" target="256RreKp1Q9fWOY7JlpU-100">
          <mxGeometry relative="1" as="geometry" />
        </mxCell>
        <mxCell id="256RreKp1Q9fWOY7JlpU-97" style="edgeStyle=none;curved=1;rounded=0;orthogonalLoop=1;jettySize=auto;html=1;fontSize=12;startSize=8;endSize=8;" edge="1" parent="1" source="256RreKp1Q9fWOY7JlpU-98" target="256RreKp1Q9fWOY7JlpU-102">
          <mxGeometry relative="1" as="geometry" />
        </mxCell>
        <mxCell id="256RreKp1Q9fWOY7JlpU-106" style="edgeStyle=none;curved=1;rounded=0;orthogonalLoop=1;jettySize=auto;html=1;entryX=0;entryY=0.5;entryDx=0;entryDy=0;fontSize=12;startSize=8;endSize=8;" edge="1" parent="1" source="256RreKp1Q9fWOY7JlpU-98" target="256RreKp1Q9fWOY7JlpU-104">
          <mxGeometry relative="1" as="geometry" />
        </mxCell>
        <mxCell id="256RreKp1Q9fWOY7JlpU-107" style="edgeStyle=none;curved=1;rounded=0;orthogonalLoop=1;jettySize=auto;html=1;entryX=0;entryY=0.5;entryDx=0;entryDy=0;fontSize=12;startSize=8;endSize=8;" edge="1" parent="1" source="256RreKp1Q9fWOY7JlpU-98" target="256RreKp1Q9fWOY7JlpU-105">
          <mxGeometry relative="1" as="geometry" />
        </mxCell>
        <mxCell id="256RreKp1Q9fWOY7JlpU-98" value="sge llegadas_tardes" style="rounded=0;whiteSpace=wrap;html=1;" vertex="1" parent="1">
          <mxGeometry x="-310" y="865" width="120" height="60" as="geometry" />
        </mxCell>
        <mxCell id="256RreKp1Q9fWOY7JlpU-99" value="&lt;span style=&quot;font-weight: 700; text-align: left; text-wrap: nowrap; text-decoration-line: underline;&quot;&gt;id_llegada : int(11)&lt;/span&gt;" style="ellipse;whiteSpace=wrap;html=1;" vertex="1" parent="1">
          <mxGeometry x="-130" y="740" width="120" height="55" as="geometry" />
        </mxCell>
        <mxCell id="256RreKp1Q9fWOY7JlpU-100" value="&lt;b style=&quot;text-align: left; text-wrap: nowrap;&quot;&gt;&lt;u&gt;id_estudiante : int(11)&lt;/u&gt;&lt;/b&gt;" style="ellipse;whiteSpace=wrap;html=1;" vertex="1" parent="1">
          <mxGeometry x="-120" y="825" width="100" height="65" as="geometry" />
        </mxCell>
        <mxCell id="256RreKp1Q9fWOY7JlpU-101" value="&lt;b style=&quot;text-align: left; text-wrap: nowrap;&quot;&gt;&lt;u&gt;hora : time&lt;/u&gt;&lt;/b&gt;" style="ellipse;whiteSpace=wrap;html=1;" vertex="1" parent="1">
          <mxGeometry x="-110" y="1005" width="120" height="55" as="geometry" />
        </mxCell>
        <mxCell id="256RreKp1Q9fWOY7JlpU-102" value="&lt;b style=&quot;text-align: left; text-wrap: nowrap;&quot;&gt;&lt;u&gt;fecha : date&lt;/u&gt;&lt;/b&gt;" style="ellipse;whiteSpace=wrap;html=1;" vertex="1" parent="1">
          <mxGeometry x="-130" y="917.5" width="100" height="65" as="geometry" />
        </mxCell>
        <mxCell id="256RreKp1Q9fWOY7JlpU-103" style="edgeStyle=none;curved=1;rounded=0;orthogonalLoop=1;jettySize=auto;html=1;entryX=0.016;entryY=0.582;entryDx=0;entryDy=0;entryPerimeter=0;fontSize=12;startSize=8;endSize=8;" edge="1" parent="1" source="256RreKp1Q9fWOY7JlpU-98" target="256RreKp1Q9fWOY7JlpU-101">
          <mxGeometry relative="1" as="geometry" />
        </mxCell>
        <mxCell id="256RreKp1Q9fWOY7JlpU-104" value="&lt;b style=&quot;text-align: left; text-wrap: nowrap;&quot;&gt;&lt;u&gt;id_materia : int(11)&lt;/u&gt;&lt;/b&gt;" style="ellipse;whiteSpace=wrap;html=1;" vertex="1" parent="1">
          <mxGeometry x="-110" y="1075" width="120" height="55" as="geometry" />
        </mxCell>
        <mxCell id="256RreKp1Q9fWOY7JlpU-105" value="&lt;b style=&quot;text-align: left; text-wrap: nowrap;&quot;&gt;&lt;u&gt;id_profesor : int(11)&lt;/u&gt;&lt;/b&gt;" style="ellipse;whiteSpace=wrap;html=1;" vertex="1" parent="1">
          <mxGeometry x="-110" y="1160" width="120" height="55" as="geometry" />
        </mxCell>
        <mxCell id="256RreKp1Q9fWOY7JlpU-108" style="edgeStyle=none;curved=1;rounded=0;orthogonalLoop=1;jettySize=auto;html=1;entryX=0;entryY=0.5;entryDx=0;entryDy=0;fontSize=12;startSize=8;endSize=8;" edge="1" parent="1" source="256RreKp1Q9fWOY7JlpU-113" target="256RreKp1Q9fWOY7JlpU-114">
          <mxGeometry relative="1" as="geometry" />
        </mxCell>
        <mxCell id="256RreKp1Q9fWOY7JlpU-109" style="edgeStyle=none;curved=1;rounded=0;orthogonalLoop=1;jettySize=auto;html=1;entryX=0;entryY=0.5;entryDx=0;entryDy=0;fontSize=12;startSize=8;endSize=8;" edge="1" parent="1" source="256RreKp1Q9fWOY7JlpU-113" target="256RreKp1Q9fWOY7JlpU-115">
          <mxGeometry relative="1" as="geometry" />
        </mxCell>
        <mxCell id="256RreKp1Q9fWOY7JlpU-110" style="edgeStyle=none;curved=1;rounded=0;orthogonalLoop=1;jettySize=auto;html=1;fontSize=12;startSize=8;endSize=8;" edge="1" parent="1" source="256RreKp1Q9fWOY7JlpU-113" target="256RreKp1Q9fWOY7JlpU-117">
          <mxGeometry relative="1" as="geometry" />
        </mxCell>
        <mxCell id="256RreKp1Q9fWOY7JlpU-111" style="edgeStyle=none;curved=1;rounded=0;orthogonalLoop=1;jettySize=auto;html=1;entryX=0;entryY=0.5;entryDx=0;entryDy=0;fontSize=12;startSize=8;endSize=8;" edge="1" parent="1" source="256RreKp1Q9fWOY7JlpU-113" target="256RreKp1Q9fWOY7JlpU-119">
          <mxGeometry relative="1" as="geometry" />
        </mxCell>
        <mxCell id="256RreKp1Q9fWOY7JlpU-113" value="sge comportamiento_estudiante" style="rounded=0;whiteSpace=wrap;html=1;" vertex="1" parent="1">
          <mxGeometry x="265" y="165" width="145" height="60" as="geometry" />
        </mxCell>
        <mxCell id="256RreKp1Q9fWOY7JlpU-114" value="&lt;span style=&quot;font-weight: 700; text-align: left; text-wrap: nowrap; text-decoration-line: underline;&quot;&gt;id_comportamiento_estudiamte : int(11)&lt;/span&gt;" style="ellipse;whiteSpace=wrap;html=1;" vertex="1" parent="1">
          <mxGeometry x="445" y="30" width="225" height="65" as="geometry" />
        </mxCell>
        <mxCell id="256RreKp1Q9fWOY7JlpU-115" value="&lt;b style=&quot;text-align: left; text-wrap: nowrap;&quot;&gt;&lt;u&gt;id_estudiante : int(11)&lt;/u&gt;&lt;/b&gt;" style="ellipse;whiteSpace=wrap;html=1;" vertex="1" parent="1">
          <mxGeometry x="455" y="125" width="100" height="65" as="geometry" />
        </mxCell>
        <mxCell id="256RreKp1Q9fWOY7JlpU-116" value="&lt;b style=&quot;text-align: left; text-wrap: nowrap;&quot;&gt;&lt;u&gt;fecha : date&lt;/u&gt;&lt;/b&gt;" style="ellipse;whiteSpace=wrap;html=1;" vertex="1" parent="1">
          <mxGeometry x="465" y="305" width="120" height="55" as="geometry" />
        </mxCell>
        <mxCell id="256RreKp1Q9fWOY7JlpU-117" value="&lt;b style=&quot;text-align: left; text-wrap: nowrap;&quot;&gt;&lt;u&gt;id_comportamiento : int(11)&lt;/u&gt;&lt;/b&gt;" style="ellipse;whiteSpace=wrap;html=1;" vertex="1" parent="1">
          <mxGeometry x="445" y="200" width="165" height="82.5" as="geometry" />
        </mxCell>
        <mxCell id="256RreKp1Q9fWOY7JlpU-118" style="edgeStyle=none;curved=1;rounded=0;orthogonalLoop=1;jettySize=auto;html=1;entryX=0.016;entryY=0.582;entryDx=0;entryDy=0;entryPerimeter=0;fontSize=12;startSize=8;endSize=8;" edge="1" parent="1" source="256RreKp1Q9fWOY7JlpU-113" target="256RreKp1Q9fWOY7JlpU-116">
          <mxGeometry relative="1" as="geometry" />
        </mxCell>
        <mxCell id="256RreKp1Q9fWOY7JlpU-119" value="&lt;b style=&quot;text-align: left; text-wrap: nowrap;&quot;&gt;&lt;u&gt;descripcion_adicional : varchar(500)&lt;/u&gt;&lt;/b&gt;" style="ellipse;whiteSpace=wrap;html=1;" vertex="1" parent="1">
          <mxGeometry x="465" y="375" width="225" height="55" as="geometry" />
        </mxCell>
        <mxCell id="256RreKp1Q9fWOY7JlpU-127" style="edgeStyle=none;curved=1;rounded=0;orthogonalLoop=1;jettySize=auto;html=1;entryX=0;entryY=0.5;entryDx=0;entryDy=0;fontSize=12;startSize=8;endSize=8;" edge="1" parent="1" source="256RreKp1Q9fWOY7JlpU-123" target="256RreKp1Q9fWOY7JlpU-125">
          <mxGeometry relative="1" as="geometry" />
        </mxCell>
        <mxCell id="256RreKp1Q9fWOY7JlpU-128" style="edgeStyle=none;curved=1;rounded=0;orthogonalLoop=1;jettySize=auto;html=1;entryX=0;entryY=0.5;entryDx=0;entryDy=0;fontSize=12;startSize=8;endSize=8;" edge="1" parent="1" source="256RreKp1Q9fWOY7JlpU-123" target="256RreKp1Q9fWOY7JlpU-124">
          <mxGeometry relative="1" as="geometry" />
        </mxCell>
        <mxCell id="256RreKp1Q9fWOY7JlpU-129" style="edgeStyle=none;curved=1;rounded=0;orthogonalLoop=1;jettySize=auto;html=1;entryX=0;entryY=0.5;entryDx=0;entryDy=0;fontSize=12;startSize=8;endSize=8;" edge="1" parent="1" source="256RreKp1Q9fWOY7JlpU-123" target="256RreKp1Q9fWOY7JlpU-126">
          <mxGeometry relative="1" as="geometry" />
        </mxCell>
        <mxCell id="256RreKp1Q9fWOY7JlpU-123" value="sge usuarios" style="rounded=0;whiteSpace=wrap;html=1;" vertex="1" parent="1">
          <mxGeometry x="230" y="510" width="120" height="60" as="geometry" />
        </mxCell>
        <mxCell id="256RreKp1Q9fWOY7JlpU-124" value="&lt;b style=&quot;text-align: left; text-wrap: nowrap;&quot;&gt;&lt;u&gt;nombre_usuario: varchar(50)&lt;/u&gt;&lt;/b&gt;" style="ellipse;whiteSpace=wrap;html=1;" vertex="1" parent="1">
          <mxGeometry x="390" y="540" width="180" height="70" as="geometry" />
        </mxCell>
        <mxCell id="256RreKp1Q9fWOY7JlpU-125" value="&lt;span style=&quot;font-weight: 700; text-align: left; text-wrap: nowrap; text-decoration-line: underline;&quot;&gt;id_usuario : int(11)&lt;/span&gt;" style="ellipse;whiteSpace=wrap;html=1;" vertex="1" parent="1">
          <mxGeometry x="400" y="460" width="100" height="65" as="geometry" />
        </mxCell>
        <mxCell id="256RreKp1Q9fWOY7JlpU-126" value="&lt;b style=&quot;text-align: left; text-wrap: nowrap;&quot;&gt;&lt;u&gt;contraseña : varchar(100)&lt;/u&gt;&lt;/b&gt;" style="ellipse;whiteSpace=wrap;html=1;" vertex="1" parent="1">
          <mxGeometry x="410" y="650" width="160" height="70" as="geometry" />
        </mxCell>
        <mxCell id="256RreKp1Q9fWOY7JlpU-130" style="edgeStyle=none;curved=1;rounded=0;orthogonalLoop=1;jettySize=auto;html=1;entryX=0;entryY=0.5;entryDx=0;entryDy=0;fontSize=12;startSize=8;endSize=8;" edge="1" parent="1" source="256RreKp1Q9fWOY7JlpU-133" target="256RreKp1Q9fWOY7JlpU-135">
          <mxGeometry relative="1" as="geometry" />
        </mxCell>
        <mxCell id="256RreKp1Q9fWOY7JlpU-131" style="edgeStyle=none;curved=1;rounded=0;orthogonalLoop=1;jettySize=auto;html=1;entryX=0;entryY=0.5;entryDx=0;entryDy=0;fontSize=12;startSize=8;endSize=8;" edge="1" parent="1" source="256RreKp1Q9fWOY7JlpU-133" target="256RreKp1Q9fWOY7JlpU-134">
          <mxGeometry relative="1" as="geometry" />
        </mxCell>
        <mxCell id="256RreKp1Q9fWOY7JlpU-132" style="edgeStyle=none;curved=1;rounded=0;orthogonalLoop=1;jettySize=auto;html=1;entryX=0;entryY=0.5;entryDx=0;entryDy=0;fontSize=12;startSize=8;endSize=8;" edge="1" parent="1" source="256RreKp1Q9fWOY7JlpU-133" target="256RreKp1Q9fWOY7JlpU-136">
          <mxGeometry relative="1" as="geometry" />
        </mxCell>
        <mxCell id="256RreKp1Q9fWOY7JlpU-138" style="edgeStyle=none;curved=1;rounded=0;orthogonalLoop=1;jettySize=auto;html=1;entryX=0;entryY=0.5;entryDx=0;entryDy=0;fontSize=12;startSize=8;endSize=8;" edge="1" parent="1" source="256RreKp1Q9fWOY7JlpU-133" target="256RreKp1Q9fWOY7JlpU-137">
          <mxGeometry relative="1" as="geometry" />
        </mxCell>
        <mxCell id="256RreKp1Q9fWOY7JlpU-133" value="sge materias" style="rounded=0;whiteSpace=wrap;html=1;" vertex="1" parent="1">
          <mxGeometry x="230" y="830" width="120" height="60" as="geometry" />
        </mxCell>
        <mxCell id="256RreKp1Q9fWOY7JlpU-134" value="&lt;b style=&quot;text-align: left; text-wrap: nowrap;&quot;&gt;&lt;u&gt;nombre : varchar(!00)&lt;/u&gt;&lt;/b&gt;" style="ellipse;whiteSpace=wrap;html=1;" vertex="1" parent="1">
          <mxGeometry x="390" y="860" width="180" height="70" as="geometry" />
        </mxCell>
        <mxCell id="256RreKp1Q9fWOY7JlpU-135" value="&lt;span style=&quot;font-weight: 700; text-align: left; text-wrap: nowrap; text-decoration-line: underline;&quot;&gt;id_materia : int(11)&lt;/span&gt;" style="ellipse;whiteSpace=wrap;html=1;" vertex="1" parent="1">
          <mxGeometry x="400" y="780" width="100" height="65" as="geometry" />
        </mxCell>
        <mxCell id="256RreKp1Q9fWOY7JlpU-136" value="&lt;b style=&quot;text-align: left; text-wrap: nowrap;&quot;&gt;&lt;u&gt;descripcion : varchar(500)&lt;/u&gt;&lt;/b&gt;" style="ellipse;whiteSpace=wrap;html=1;" vertex="1" parent="1">
          <mxGeometry x="410" y="970" width="160" height="70" as="geometry" />
        </mxCell>
        <mxCell id="256RreKp1Q9fWOY7JlpU-137" value="&lt;b style=&quot;text-align: left; text-wrap: nowrap;&quot;&gt;&lt;u&gt;id_profesor : int(11)&lt;/u&gt;&lt;/b&gt;" style="ellipse;whiteSpace=wrap;html=1;" vertex="1" parent="1">
          <mxGeometry x="410" y="1085" width="160" height="70" as="geometry" />
        </mxCell>
        <mxCell id="256RreKp1Q9fWOY7JlpU-139" style="edgeStyle=none;curved=1;rounded=0;orthogonalLoop=1;jettySize=auto;html=1;entryX=0;entryY=0.5;entryDx=0;entryDy=0;fontSize=12;startSize=8;endSize=8;" edge="1" parent="1" source="256RreKp1Q9fWOY7JlpU-142" target="256RreKp1Q9fWOY7JlpU-144">
          <mxGeometry relative="1" as="geometry" />
        </mxCell>
        <mxCell id="256RreKp1Q9fWOY7JlpU-140" style="edgeStyle=none;curved=1;rounded=0;orthogonalLoop=1;jettySize=auto;html=1;entryX=0;entryY=0.5;entryDx=0;entryDy=0;fontSize=12;startSize=8;endSize=8;" edge="1" parent="1" source="256RreKp1Q9fWOY7JlpU-142" target="256RreKp1Q9fWOY7JlpU-143">
          <mxGeometry relative="1" as="geometry" />
        </mxCell>
        <mxCell id="256RreKp1Q9fWOY7JlpU-141" style="edgeStyle=none;curved=1;rounded=0;orthogonalLoop=1;jettySize=auto;html=1;entryX=0;entryY=0.5;entryDx=0;entryDy=0;fontSize=12;startSize=8;endSize=8;" edge="1" parent="1" source="256RreKp1Q9fWOY7JlpU-142" target="256RreKp1Q9fWOY7JlpU-145">
          <mxGeometry relative="1" as="geometry" />
        </mxCell>
        <mxCell id="256RreKp1Q9fWOY7JlpU-142" value="sge inscripcion" style="rounded=0;whiteSpace=wrap;html=1;" vertex="1" parent="1">
          <mxGeometry x="280" y="1267.5" width="120" height="60" as="geometry" />
        </mxCell>
        <mxCell id="256RreKp1Q9fWOY7JlpU-143" value="&lt;b style=&quot;text-align: left; text-wrap: nowrap;&quot;&gt;&lt;u&gt;id estudiante : int(11)&lt;/u&gt;&lt;/b&gt;" style="ellipse;whiteSpace=wrap;html=1;" vertex="1" parent="1">
          <mxGeometry x="440" y="1297.5" width="180" height="70" as="geometry" />
        </mxCell>
        <mxCell id="256RreKp1Q9fWOY7JlpU-144" value="&lt;span style=&quot;font-weight: 700; text-align: left; text-wrap: nowrap; text-decoration-line: underline;&quot;&gt;id_inscripcion : int(11)&lt;/span&gt;" style="ellipse;whiteSpace=wrap;html=1;" vertex="1" parent="1">
          <mxGeometry x="450" y="1217.5" width="100" height="65" as="geometry" />
        </mxCell>
        <mxCell id="256RreKp1Q9fWOY7JlpU-145" value="&lt;b style=&quot;text-align: left; text-wrap: nowrap;&quot;&gt;&lt;u&gt;id_materia : int(10)&lt;/u&gt;&lt;/b&gt;" style="ellipse;whiteSpace=wrap;html=1;" vertex="1" parent="1">
          <mxGeometry x="460" y="1407.5" width="160" height="70" as="geometry" />
        </mxCell>
        <mxCell id="256RreKp1Q9fWOY7JlpU-146" style="edgeStyle=none;curved=1;rounded=0;orthogonalLoop=1;jettySize=auto;html=1;entryX=0;entryY=0.5;entryDx=0;entryDy=0;fontSize=12;startSize=8;endSize=8;" edge="1" parent="1" source="256RreKp1Q9fWOY7JlpU-149" target="256RreKp1Q9fWOY7JlpU-151">
          <mxGeometry relative="1" as="geometry" />
        </mxCell>
        <mxCell id="256RreKp1Q9fWOY7JlpU-147" style="edgeStyle=none;curved=1;rounded=0;orthogonalLoop=1;jettySize=auto;html=1;entryX=0;entryY=0.5;entryDx=0;entryDy=0;fontSize=12;startSize=8;endSize=8;" edge="1" parent="1" source="256RreKp1Q9fWOY7JlpU-149" target="256RreKp1Q9fWOY7JlpU-150">
          <mxGeometry relative="1" as="geometry" />
        </mxCell>
        <mxCell id="256RreKp1Q9fWOY7JlpU-148" style="edgeStyle=none;curved=1;rounded=0;orthogonalLoop=1;jettySize=auto;html=1;entryX=0;entryY=0.5;entryDx=0;entryDy=0;fontSize=12;startSize=8;endSize=8;" edge="1" parent="1" source="256RreKp1Q9fWOY7JlpU-149" target="256RreKp1Q9fWOY7JlpU-152">
          <mxGeometry relative="1" as="geometry" />
        </mxCell>
        <mxCell id="256RreKp1Q9fWOY7JlpU-149" value="sge comportamiento" style="rounded=0;whiteSpace=wrap;html=1;" vertex="1" parent="1">
          <mxGeometry x="320" y="1587.5" width="120" height="60" as="geometry" />
        </mxCell>
        <mxCell id="256RreKp1Q9fWOY7JlpU-150" value="&lt;b style=&quot;text-align: left; text-wrap: nowrap;&quot;&gt;&lt;u&gt;codigo : enum(&#39;falta leve&#39;, &#39;falta grave&#39;,&#39;falta muy grave&#39;)&lt;/u&gt;&lt;/b&gt;" style="ellipse;whiteSpace=wrap;html=1;" vertex="1" parent="1">
          <mxGeometry x="480" y="1620" width="370" height="67.5" as="geometry" />
        </mxCell>
        <mxCell id="256RreKp1Q9fWOY7JlpU-151" value="&lt;span style=&quot;font-weight: 700; text-align: left; text-wrap: nowrap; text-decoration-line: underline;&quot;&gt;id_comportamiento : int(11)&lt;/span&gt;" style="ellipse;whiteSpace=wrap;html=1;" vertex="1" parent="1">
          <mxGeometry x="490" y="1530" width="180" height="72.5" as="geometry" />
        </mxCell>
        <mxCell id="256RreKp1Q9fWOY7JlpU-152" value="&lt;b style=&quot;text-align: left; text-wrap: nowrap;&quot;&gt;&lt;u&gt;descripcion : varchar(500)&lt;/u&gt;&lt;/b&gt;" style="ellipse;whiteSpace=wrap;html=1;" vertex="1" parent="1">
          <mxGeometry x="500" y="1727.5" width="160" height="70" as="geometry" />
        </mxCell>
        <mxCell id="256RreKp1Q9fWOY7JlpU-155" style="edgeStyle=none;curved=1;rounded=0;orthogonalLoop=1;jettySize=auto;html=1;entryX=0;entryY=0.5;entryDx=0;entryDy=0;fontSize=12;startSize=8;endSize=8;" edge="1" parent="1" source="256RreKp1Q9fWOY7JlpU-153" target="256RreKp1Q9fWOY7JlpU-50">
          <mxGeometry relative="1" as="geometry" />
        </mxCell>
        <mxCell id="256RreKp1Q9fWOY7JlpU-153" value="tienen" style="rhombus;whiteSpace=wrap;html=1;" vertex="1" parent="1">
          <mxGeometry x="-440" y="420" width="80" height="80" as="geometry" />
        </mxCell>
        <mxCell id="256RreKp1Q9fWOY7JlpU-157" style="edgeStyle=none;curved=1;rounded=0;orthogonalLoop=1;jettySize=auto;html=1;entryX=0;entryY=0.5;entryDx=0;entryDy=0;fontSize=12;startSize=8;endSize=8;" edge="1" parent="1" source="256RreKp1Q9fWOY7JlpU-165" target="256RreKp1Q9fWOY7JlpU-166">
          <mxGeometry relative="1" as="geometry" />
        </mxCell>
        <mxCell id="256RreKp1Q9fWOY7JlpU-158" style="edgeStyle=none;curved=1;rounded=0;orthogonalLoop=1;jettySize=auto;html=1;entryX=0;entryY=0.5;entryDx=0;entryDy=0;fontSize=12;startSize=8;endSize=8;" edge="1" parent="1" source="256RreKp1Q9fWOY7JlpU-165" target="256RreKp1Q9fWOY7JlpU-167">
          <mxGeometry relative="1" as="geometry" />
        </mxCell>
        <mxCell id="256RreKp1Q9fWOY7JlpU-159" style="edgeStyle=none;curved=1;rounded=0;orthogonalLoop=1;jettySize=auto;html=1;fontSize=12;startSize=8;endSize=8;" edge="1" parent="1" source="256RreKp1Q9fWOY7JlpU-165" target="256RreKp1Q9fWOY7JlpU-169">
          <mxGeometry relative="1" as="geometry" />
        </mxCell>
        <mxCell id="256RreKp1Q9fWOY7JlpU-160" style="edgeStyle=none;curved=1;rounded=0;orthogonalLoop=1;jettySize=auto;html=1;entryX=0;entryY=0.5;entryDx=0;entryDy=0;fontSize=12;startSize=8;endSize=8;" edge="1" parent="1" source="256RreKp1Q9fWOY7JlpU-165" target="256RreKp1Q9fWOY7JlpU-171">
          <mxGeometry relative="1" as="geometry" />
        </mxCell>
        <mxCell id="256RreKp1Q9fWOY7JlpU-161" style="edgeStyle=none;curved=1;rounded=0;orthogonalLoop=1;jettySize=auto;html=1;entryX=0;entryY=0.5;entryDx=0;entryDy=0;fontSize=12;startSize=8;endSize=8;" edge="1" parent="1" source="256RreKp1Q9fWOY7JlpU-165" target="256RreKp1Q9fWOY7JlpU-172">
          <mxGeometry relative="1" as="geometry" />
        </mxCell>
        <mxCell id="256RreKp1Q9fWOY7JlpU-162" style="edgeStyle=none;curved=1;rounded=0;orthogonalLoop=1;jettySize=auto;html=1;fontSize=12;startSize=8;endSize=8;entryX=0;entryY=0.5;entryDx=0;entryDy=0;" edge="1" parent="1" source="256RreKp1Q9fWOY7JlpU-165" target="256RreKp1Q9fWOY7JlpU-174">
          <mxGeometry relative="1" as="geometry">
            <mxPoint x="1220" y="580" as="targetPoint" />
          </mxGeometry>
        </mxCell>
        <mxCell id="256RreKp1Q9fWOY7JlpU-163" style="edgeStyle=none;curved=1;rounded=0;orthogonalLoop=1;jettySize=auto;html=1;entryX=0;entryY=0.5;entryDx=0;entryDy=0;fontSize=12;startSize=8;endSize=8;" edge="1" parent="1" source="256RreKp1Q9fWOY7JlpU-165" target="256RreKp1Q9fWOY7JlpU-173">
          <mxGeometry relative="1" as="geometry" />
        </mxCell>
        <mxCell id="256RreKp1Q9fWOY7JlpU-164" style="edgeStyle=none;curved=1;rounded=0;orthogonalLoop=1;jettySize=auto;html=1;entryX=0;entryY=0.5;entryDx=0;entryDy=0;fontSize=12;startSize=8;endSize=8;" edge="1" parent="1" source="256RreKp1Q9fWOY7JlpU-165" target="256RreKp1Q9fWOY7JlpU-175">
          <mxGeometry relative="1" as="geometry" />
        </mxCell>
        <mxCell id="256RreKp1Q9fWOY7JlpU-178" style="edgeStyle=none;curved=1;rounded=0;orthogonalLoop=1;jettySize=auto;html=1;entryX=0;entryY=0.5;entryDx=0;entryDy=0;fontSize=12;startSize=8;endSize=8;" edge="1" parent="1" source="256RreKp1Q9fWOY7JlpU-165" target="256RreKp1Q9fWOY7JlpU-176">
          <mxGeometry relative="1" as="geometry" />
        </mxCell>
        <mxCell id="256RreKp1Q9fWOY7JlpU-165" value="sge adminstrativos" style="rounded=0;whiteSpace=wrap;html=1;" vertex="1" parent="1">
          <mxGeometry x="980" y="165" width="120" height="60" as="geometry" />
        </mxCell>
        <mxCell id="256RreKp1Q9fWOY7JlpU-166" value="&lt;span style=&quot;font-weight: 700; text-align: left; text-wrap: nowrap; text-decoration-line: underline;&quot;&gt;id_administrativo : int(11)&lt;/span&gt;" style="ellipse;whiteSpace=wrap;html=1;" vertex="1" parent="1">
          <mxGeometry x="1260" y="60" width="150" height="55" as="geometry" />
        </mxCell>
        <mxCell id="256RreKp1Q9fWOY7JlpU-167" value="&lt;b style=&quot;text-align: left; text-wrap: nowrap;&quot;&gt;&lt;u&gt;usuario : varchar(50)&lt;/u&gt;&lt;/b&gt;" style="ellipse;whiteSpace=wrap;html=1;" vertex="1" parent="1">
          <mxGeometry x="1260" y="140" width="120" height="65" as="geometry" />
        </mxCell>
        <mxCell id="256RreKp1Q9fWOY7JlpU-168" value="&lt;b style=&quot;text-align: left; text-wrap: nowrap;&quot;&gt;&lt;u&gt;apellidos : varchar(60)&lt;/u&gt;&lt;/b&gt;" style="ellipse;whiteSpace=wrap;html=1;" vertex="1" parent="1">
          <mxGeometry x="1230" y="290" width="160" height="55" as="geometry" />
        </mxCell>
        <mxCell id="256RreKp1Q9fWOY7JlpU-169" value="&lt;b style=&quot;text-align: left; text-wrap: nowrap;&quot;&gt;&lt;u&gt;nombre : varchar(30)&lt;/u&gt;&lt;/b&gt;" style="ellipse;whiteSpace=wrap;html=1;" vertex="1" parent="1">
          <mxGeometry x="1250" y="225" width="130" height="65" as="geometry" />
        </mxCell>
        <mxCell id="256RreKp1Q9fWOY7JlpU-170" style="edgeStyle=none;curved=1;rounded=0;orthogonalLoop=1;jettySize=auto;html=1;entryX=0.016;entryY=0.582;entryDx=0;entryDy=0;entryPerimeter=0;fontSize=12;startSize=8;endSize=8;" edge="1" parent="1" source="256RreKp1Q9fWOY7JlpU-165" target="256RreKp1Q9fWOY7JlpU-168">
          <mxGeometry relative="1" as="geometry" />
        </mxCell>
        <mxCell id="256RreKp1Q9fWOY7JlpU-171" value="&lt;b style=&quot;text-align: left; text-wrap: nowrap;&quot;&gt;&lt;u&gt;fecha_de_nacimiento : date&lt;/u&gt;&lt;/b&gt;" style="ellipse;whiteSpace=wrap;html=1;" vertex="1" parent="1">
          <mxGeometry x="1240" y="360" width="170" height="75" as="geometry" />
        </mxCell>
        <mxCell id="256RreKp1Q9fWOY7JlpU-172" value="&lt;b style=&quot;text-align: left; text-wrap: nowrap;&quot;&gt;&lt;u&gt;genero : varchar(30)&lt;/u&gt;&lt;/b&gt;" style="ellipse;whiteSpace=wrap;html=1;" vertex="1" parent="1">
          <mxGeometry x="1240" y="460" width="140" height="65" as="geometry" />
        </mxCell>
        <mxCell id="256RreKp1Q9fWOY7JlpU-173" value="&lt;b style=&quot;text-align: left; text-wrap: nowrap;&quot;&gt;&lt;u&gt;direccion : varchar(200)&lt;/u&gt;&lt;/b&gt;" style="ellipse;whiteSpace=wrap;html=1;" vertex="1" parent="1">
          <mxGeometry x="1200" y="620" width="160" height="60" as="geometry" />
        </mxCell>
        <mxCell id="256RreKp1Q9fWOY7JlpU-174" value="&lt;b style=&quot;text-align: left; text-wrap: nowrap;&quot;&gt;&lt;u&gt;telefono : varchar(10)&lt;/u&gt;&lt;/b&gt;" style="ellipse;whiteSpace=wrap;html=1;" vertex="1" parent="1">
          <mxGeometry x="1230" y="545" width="290" height="65" as="geometry" />
        </mxCell>
        <mxCell id="256RreKp1Q9fWOY7JlpU-175" value="&lt;b style=&quot;text-align: left; text-wrap: nowrap;&quot;&gt;&lt;u&gt;ocupacion : varchar(100)&lt;/u&gt;&lt;/b&gt;" style="ellipse;whiteSpace=wrap;html=1;" vertex="1" parent="1">
          <mxGeometry x="1210" y="700" width="170" height="55" as="geometry" />
        </mxCell>
        <mxCell id="256RreKp1Q9fWOY7JlpU-176" value="&lt;b style=&quot;text-align: left; text-wrap: nowrap;&quot;&gt;&lt;u&gt;id_usuario : int(11)&lt;/u&gt;&lt;/b&gt;" style="ellipse;whiteSpace=wrap;html=1;" vertex="1" parent="1">
          <mxGeometry x="1200" y="770" width="170" height="55" as="geometry" />
        </mxCell>
        <mxCell id="256RreKp1Q9fWOY7JlpU-179" style="edgeStyle=none;curved=1;rounded=0;orthogonalLoop=1;jettySize=auto;html=1;entryX=0;entryY=0.5;entryDx=0;entryDy=0;fontSize=12;startSize=8;endSize=8;" edge="1" parent="1" source="256RreKp1Q9fWOY7JlpU-183" target="256RreKp1Q9fWOY7JlpU-184">
          <mxGeometry relative="1" as="geometry" />
        </mxCell>
        <mxCell id="256RreKp1Q9fWOY7JlpU-180" style="edgeStyle=none;curved=1;rounded=0;orthogonalLoop=1;jettySize=auto;html=1;entryX=0;entryY=0.5;entryDx=0;entryDy=0;fontSize=12;startSize=8;endSize=8;" edge="1" parent="1" source="256RreKp1Q9fWOY7JlpU-183" target="256RreKp1Q9fWOY7JlpU-185">
          <mxGeometry relative="1" as="geometry" />
        </mxCell>
        <mxCell id="256RreKp1Q9fWOY7JlpU-181" style="edgeStyle=none;curved=1;rounded=0;orthogonalLoop=1;jettySize=auto;html=1;fontSize=12;startSize=8;endSize=8;" edge="1" parent="1" source="256RreKp1Q9fWOY7JlpU-183" target="256RreKp1Q9fWOY7JlpU-187">
          <mxGeometry relative="1" as="geometry" />
        </mxCell>
        <mxCell id="256RreKp1Q9fWOY7JlpU-182" style="edgeStyle=none;curved=1;rounded=0;orthogonalLoop=1;jettySize=auto;html=1;entryX=0;entryY=0.5;entryDx=0;entryDy=0;fontSize=12;startSize=8;endSize=8;" edge="1" parent="1" source="256RreKp1Q9fWOY7JlpU-183" target="256RreKp1Q9fWOY7JlpU-189">
          <mxGeometry relative="1" as="geometry" />
        </mxCell>
        <mxCell id="256RreKp1Q9fWOY7JlpU-183" value="sge asistencia" style="rounded=0;whiteSpace=wrap;html=1;" vertex="1" parent="1">
          <mxGeometry x="990" y="1062.5" width="145" height="60" as="geometry" />
        </mxCell>
        <mxCell id="256RreKp1Q9fWOY7JlpU-184" value="&lt;span style=&quot;font-weight: 700; text-align: left; text-wrap: nowrap; text-decoration-line: underline;&quot;&gt;id_asistencia : int(11)&lt;/span&gt;" style="ellipse;whiteSpace=wrap;html=1;" vertex="1" parent="1">
          <mxGeometry x="1170" y="927.5" width="225" height="65" as="geometry" />
        </mxCell>
        <mxCell id="256RreKp1Q9fWOY7JlpU-185" value="&lt;span style=&quot;font-weight: 700; text-align: left; text-wrap: nowrap; text-decoration-line: underline;&quot;&gt;id_estudiante : int(11)&lt;/span&gt;" style="ellipse;whiteSpace=wrap;html=1;" vertex="1" parent="1">
          <mxGeometry x="1180" y="1010" width="180" height="77.5" as="geometry" />
        </mxCell>
        <mxCell id="256RreKp1Q9fWOY7JlpU-186" value="&lt;b style=&quot;text-align: left; text-wrap: nowrap;&quot;&gt;&lt;u&gt;estado : enum(&#39;asistilo&#39;,&#39;falta&#39;)&lt;/u&gt;&lt;/b&gt;" style="ellipse;whiteSpace=wrap;html=1;" vertex="1" parent="1">
          <mxGeometry x="1190" y="1202.5" width="200" height="57.5" as="geometry" />
        </mxCell>
        <mxCell id="256RreKp1Q9fWOY7JlpU-187" value="&lt;b style=&quot;text-align: left; text-wrap: nowrap;&quot;&gt;&lt;u&gt;fecha: date&lt;/u&gt;&lt;/b&gt;" style="ellipse;whiteSpace=wrap;html=1;" vertex="1" parent="1">
          <mxGeometry x="1170" y="1097.5" width="165" height="82.5" as="geometry" />
        </mxCell>
        <mxCell id="256RreKp1Q9fWOY7JlpU-188" style="edgeStyle=none;curved=1;rounded=0;orthogonalLoop=1;jettySize=auto;html=1;entryX=0.016;entryY=0.582;entryDx=0;entryDy=0;entryPerimeter=0;fontSize=12;startSize=8;endSize=8;" edge="1" parent="1" source="256RreKp1Q9fWOY7JlpU-183" target="256RreKp1Q9fWOY7JlpU-186">
          <mxGeometry relative="1" as="geometry" />
        </mxCell>
        <mxCell id="256RreKp1Q9fWOY7JlpU-189" value="&lt;b style=&quot;text-align: left; text-wrap: nowrap;&quot;&gt;&lt;u&gt;id_profesor: int(11)&lt;/u&gt;&lt;/b&gt;" style="ellipse;whiteSpace=wrap;html=1;" vertex="1" parent="1">
          <mxGeometry x="1190" y="1272.5" width="225" height="55" as="geometry" />
        </mxCell>
        <mxCell id="256RreKp1Q9fWOY7JlpU-190" style="edgeStyle=none;curved=1;rounded=0;orthogonalLoop=1;jettySize=auto;html=1;entryX=0;entryY=0.5;entryDx=0;entryDy=0;fontSize=12;startSize=8;endSize=8;" edge="1" parent="1" source="256RreKp1Q9fWOY7JlpU-194" target="256RreKp1Q9fWOY7JlpU-195">
          <mxGeometry relative="1" as="geometry" />
        </mxCell>
        <mxCell id="256RreKp1Q9fWOY7JlpU-191" style="edgeStyle=none;curved=1;rounded=0;orthogonalLoop=1;jettySize=auto;html=1;entryX=0;entryY=0.5;entryDx=0;entryDy=0;fontSize=12;startSize=8;endSize=8;" edge="1" parent="1" source="256RreKp1Q9fWOY7JlpU-194" target="256RreKp1Q9fWOY7JlpU-196">
          <mxGeometry relative="1" as="geometry" />
        </mxCell>
        <mxCell id="256RreKp1Q9fWOY7JlpU-192" style="edgeStyle=none;curved=1;rounded=0;orthogonalLoop=1;jettySize=auto;html=1;fontSize=12;startSize=8;endSize=8;" edge="1" parent="1" source="256RreKp1Q9fWOY7JlpU-194" target="256RreKp1Q9fWOY7JlpU-198">
          <mxGeometry relative="1" as="geometry" />
        </mxCell>
        <mxCell id="256RreKp1Q9fWOY7JlpU-193" style="edgeStyle=none;curved=1;rounded=0;orthogonalLoop=1;jettySize=auto;html=1;entryX=0;entryY=0.5;entryDx=0;entryDy=0;fontSize=12;startSize=8;endSize=8;" edge="1" parent="1" source="256RreKp1Q9fWOY7JlpU-194" target="256RreKp1Q9fWOY7JlpU-200">
          <mxGeometry relative="1" as="geometry" />
        </mxCell>
        <mxCell id="256RreKp1Q9fWOY7JlpU-202" style="edgeStyle=none;curved=1;rounded=0;orthogonalLoop=1;jettySize=auto;html=1;entryX=0;entryY=0.5;entryDx=0;entryDy=0;fontSize=12;startSize=8;endSize=8;" edge="1" parent="1" source="256RreKp1Q9fWOY7JlpU-194" target="256RreKp1Q9fWOY7JlpU-201">
          <mxGeometry relative="1" as="geometry" />
        </mxCell>
        <mxCell id="256RreKp1Q9fWOY7JlpU-194" value="sge estudiantes" style="rounded=0;whiteSpace=wrap;html=1;" vertex="1" parent="1">
          <mxGeometry x="1000" y="1565" width="145" height="60" as="geometry" />
        </mxCell>
        <mxCell id="256RreKp1Q9fWOY7JlpU-195" value="&lt;span style=&quot;font-weight: 700; text-align: left; text-wrap: nowrap; text-decoration-line: underline;&quot;&gt;id_estudiante: int(11)&lt;/span&gt;" style="ellipse;whiteSpace=wrap;html=1;" vertex="1" parent="1">
          <mxGeometry x="1180" y="1430" width="225" height="65" as="geometry" />
        </mxCell>
        <mxCell id="256RreKp1Q9fWOY7JlpU-196" value="&lt;span style=&quot;font-weight: 700; text-align: left; text-wrap: nowrap; text-decoration-line: underline;&quot;&gt;nombre: varchar(30)&lt;/span&gt;" style="ellipse;whiteSpace=wrap;html=1;" vertex="1" parent="1">
          <mxGeometry x="1190" y="1512.5" width="180" height="77.5" as="geometry" />
        </mxCell>
        <mxCell id="256RreKp1Q9fWOY7JlpU-197" value="&lt;b style=&quot;text-wrap: nowrap; text-align: left;&quot;&gt;&lt;u&gt;fecha_de_nacimiento : date&lt;/u&gt;&lt;/b&gt;" style="ellipse;whiteSpace=wrap;html=1;" vertex="1" parent="1">
          <mxGeometry x="1200" y="1705" width="200" height="57.5" as="geometry" />
        </mxCell>
        <mxCell id="256RreKp1Q9fWOY7JlpU-198" value="&lt;b style=&quot;text-align: left; text-wrap: nowrap;&quot;&gt;&lt;u&gt;apellidos: varchar(60)&lt;/u&gt;&lt;/b&gt;" style="ellipse;whiteSpace=wrap;html=1;" vertex="1" parent="1">
          <mxGeometry x="1180" y="1600" width="165" height="82.5" as="geometry" />
        </mxCell>
        <mxCell id="256RreKp1Q9fWOY7JlpU-199" style="edgeStyle=none;curved=1;rounded=0;orthogonalLoop=1;jettySize=auto;html=1;entryX=0.016;entryY=0.582;entryDx=0;entryDy=0;entryPerimeter=0;fontSize=12;startSize=8;endSize=8;" edge="1" parent="1" source="256RreKp1Q9fWOY7JlpU-194" target="256RreKp1Q9fWOY7JlpU-197">
          <mxGeometry relative="1" as="geometry" />
        </mxCell>
        <mxCell id="256RreKp1Q9fWOY7JlpU-200" value="&lt;b style=&quot;text-align: left; text-wrap: nowrap;&quot;&gt;&lt;u&gt;id_profesor: int(11)&lt;/u&gt;&lt;/b&gt;" style="ellipse;whiteSpace=wrap;html=1;" vertex="1" parent="1">
          <mxGeometry x="1200" y="1775" width="225" height="55" as="geometry" />
        </mxCell>
        <mxCell id="256RreKp1Q9fWOY7JlpU-201" value="&lt;b style=&quot;text-wrap: nowrap; text-align: left;&quot;&gt;&lt;u&gt;genero : enum(&#39;masculino&#39;,&#39;femenino,&#39;otro&#39;)&lt;/u&gt;&lt;/b&gt;" style="ellipse;whiteSpace=wrap;html=1;" vertex="1" parent="1">
          <mxGeometry x="1170" y="1850" width="250" height="70" as="geometry" />
        </mxCell>
        <mxCell id="256RreKp1Q9fWOY7JlpU-203" style="edgeStyle=none;curved=1;rounded=0;orthogonalLoop=1;jettySize=auto;html=1;entryX=0;entryY=0.5;entryDx=0;entryDy=0;fontSize=12;startSize=8;endSize=8;" edge="1" parent="1" source="256RreKp1Q9fWOY7JlpU-207" target="256RreKp1Q9fWOY7JlpU-208">
          <mxGeometry relative="1" as="geometry" />
        </mxCell>
        <mxCell id="256RreKp1Q9fWOY7JlpU-204" style="edgeStyle=none;curved=1;rounded=0;orthogonalLoop=1;jettySize=auto;html=1;entryX=0;entryY=0.5;entryDx=0;entryDy=0;fontSize=12;startSize=8;endSize=8;" edge="1" parent="1" source="256RreKp1Q9fWOY7JlpU-207" target="256RreKp1Q9fWOY7JlpU-209">
          <mxGeometry relative="1" as="geometry" />
        </mxCell>
        <mxCell id="256RreKp1Q9fWOY7JlpU-205" style="edgeStyle=none;curved=1;rounded=0;orthogonalLoop=1;jettySize=auto;html=1;fontSize=12;startSize=8;endSize=8;" edge="1" parent="1" source="256RreKp1Q9fWOY7JlpU-207" target="256RreKp1Q9fWOY7JlpU-211">
          <mxGeometry relative="1" as="geometry" />
        </mxCell>
        <mxCell id="256RreKp1Q9fWOY7JlpU-206" style="edgeStyle=none;curved=1;rounded=0;orthogonalLoop=1;jettySize=auto;html=1;entryX=0;entryY=0.5;entryDx=0;entryDy=0;fontSize=12;startSize=8;endSize=8;" edge="1" parent="1" source="256RreKp1Q9fWOY7JlpU-207" target="256RreKp1Q9fWOY7JlpU-213">
          <mxGeometry relative="1" as="geometry" />
        </mxCell>
        <mxCell id="256RreKp1Q9fWOY7JlpU-207" value="sge llegadas_tarde_institucion" style="rounded=0;whiteSpace=wrap;html=1;" vertex="1" parent="1">
          <mxGeometry x="1830" y="195" width="145" height="60" as="geometry" />
        </mxCell>
        <mxCell id="256RreKp1Q9fWOY7JlpU-208" value="&lt;span style=&quot;font-weight: 700; text-align: left; text-wrap: nowrap; text-decoration-line: underline;&quot;&gt;id_&lt;/span&gt;llegada_tarde_institucion&lt;span style=&quot;font-weight: 700; text-align: left; text-wrap: nowrap; text-decoration-line: underline;&quot;&gt;&amp;nbsp;: int(11)&lt;/span&gt;" style="ellipse;whiteSpace=wrap;html=1;" vertex="1" parent="1">
          <mxGeometry x="2010" y="60" width="225" height="65" as="geometry" />
        </mxCell>
        <mxCell id="256RreKp1Q9fWOY7JlpU-209" value="&lt;span style=&quot;font-weight: 700; text-align: left; text-wrap: nowrap; text-decoration-line: underline;&quot;&gt;fecha: date&lt;/span&gt;" style="ellipse;whiteSpace=wrap;html=1;" vertex="1" parent="1">
          <mxGeometry x="2020" y="142.5" width="180" height="77.5" as="geometry" />
        </mxCell>
        <mxCell id="256RreKp1Q9fWOY7JlpU-210" value="&lt;b style=&quot;text-align: left; text-wrap: nowrap;&quot;&gt;&lt;u&gt;id_profesor: int(11)&lt;/u&gt;&lt;/b&gt;" style="ellipse;whiteSpace=wrap;html=1;" vertex="1" parent="1">
          <mxGeometry x="2030" y="335" width="200" height="57.5" as="geometry" />
        </mxCell>
        <mxCell id="256RreKp1Q9fWOY7JlpU-211" value="&lt;b style=&quot;text-align: left; text-wrap: nowrap;&quot;&gt;&lt;u&gt;hora: time&lt;/u&gt;&lt;/b&gt;" style="ellipse;whiteSpace=wrap;html=1;" vertex="1" parent="1">
          <mxGeometry x="2010" y="230" width="165" height="82.5" as="geometry" />
        </mxCell>
        <mxCell id="256RreKp1Q9fWOY7JlpU-212" style="edgeStyle=none;curved=1;rounded=0;orthogonalLoop=1;jettySize=auto;html=1;entryX=0.016;entryY=0.582;entryDx=0;entryDy=0;entryPerimeter=0;fontSize=12;startSize=8;endSize=8;" edge="1" parent="1" source="256RreKp1Q9fWOY7JlpU-207" target="256RreKp1Q9fWOY7JlpU-210">
          <mxGeometry relative="1" as="geometry" />
        </mxCell>
        <mxCell id="256RreKp1Q9fWOY7JlpU-213" value="&lt;b style=&quot;text-align: left; text-wrap: nowrap;&quot;&gt;&lt;u&gt;estado: enum(&#39;justificado&#39;,&#39;injustificado&#39;)&lt;/u&gt;&lt;/b&gt;" style="ellipse;whiteSpace=wrap;html=1;" vertex="1" parent="1">
          <mxGeometry x="2030" y="405" width="260" height="65" as="geometry" />
        </mxCell>
        <mxCell id="256RreKp1Q9fWOY7JlpU-223" style="edgeStyle=none;curved=1;rounded=0;orthogonalLoop=1;jettySize=auto;html=1;entryX=0;entryY=0.5;entryDx=0;entryDy=0;fontSize=12;startSize=8;endSize=8;" edge="1" parent="1" source="256RreKp1Q9fWOY7JlpU-227" target="256RreKp1Q9fWOY7JlpU-228">
          <mxGeometry relative="1" as="geometry" />
        </mxCell>
        <mxCell id="256RreKp1Q9fWOY7JlpU-224" style="edgeStyle=none;curved=1;rounded=0;orthogonalLoop=1;jettySize=auto;html=1;entryX=0;entryY=0.5;entryDx=0;entryDy=0;fontSize=12;startSize=8;endSize=8;" edge="1" parent="1" source="256RreKp1Q9fWOY7JlpU-227" target="256RreKp1Q9fWOY7JlpU-229">
          <mxGeometry relative="1" as="geometry" />
        </mxCell>
        <mxCell id="256RreKp1Q9fWOY7JlpU-225" style="edgeStyle=none;curved=1;rounded=0;orthogonalLoop=1;jettySize=auto;html=1;fontSize=12;startSize=8;endSize=8;" edge="1" parent="1" source="256RreKp1Q9fWOY7JlpU-227" target="256RreKp1Q9fWOY7JlpU-231">
          <mxGeometry relative="1" as="geometry" />
        </mxCell>
        <mxCell id="256RreKp1Q9fWOY7JlpU-226" style="edgeStyle=none;curved=1;rounded=0;orthogonalLoop=1;jettySize=auto;html=1;entryX=0;entryY=0.5;entryDx=0;entryDy=0;fontSize=12;startSize=8;endSize=8;" edge="1" parent="1" source="256RreKp1Q9fWOY7JlpU-227" target="256RreKp1Q9fWOY7JlpU-233">
          <mxGeometry relative="1" as="geometry" />
        </mxCell>
        <mxCell id="256RreKp1Q9fWOY7JlpU-227" value="sge observaciones" style="rounded=0;whiteSpace=wrap;html=1;" vertex="1" parent="1">
          <mxGeometry x="1850" y="660" width="145" height="60" as="geometry" />
        </mxCell>
        <mxCell id="256RreKp1Q9fWOY7JlpU-228" value="&lt;div style=&quot;text-align: left;&quot;&gt;&lt;span style=&quot;background-color: initial; text-wrap: nowrap;&quot;&gt;&lt;b&gt;&lt;u&gt;id_observacion : int(11)&lt;/u&gt;&lt;/b&gt;&lt;/span&gt;&lt;/div&gt;" style="ellipse;whiteSpace=wrap;html=1;" vertex="1" parent="1">
          <mxGeometry x="2030" y="525" width="225" height="65" as="geometry" />
        </mxCell>
        <mxCell id="256RreKp1Q9fWOY7JlpU-229" value="&lt;span style=&quot;font-weight: 700; text-align: left; text-wrap: nowrap; text-decoration-line: underline;&quot;&gt;id_estudiante : int(11)&lt;/span&gt;" style="ellipse;whiteSpace=wrap;html=1;" vertex="1" parent="1">
          <mxGeometry x="2040" y="607.5" width="180" height="77.5" as="geometry" />
        </mxCell>
        <mxCell id="256RreKp1Q9fWOY7JlpU-230" value="&lt;b style=&quot;text-align: left; text-wrap: nowrap;&quot;&gt;&lt;u&gt;fecha : date&lt;/u&gt;&lt;/b&gt;" style="ellipse;whiteSpace=wrap;html=1;" vertex="1" parent="1">
          <mxGeometry x="2050" y="800" width="200" height="57.5" as="geometry" />
        </mxCell>
        <mxCell id="256RreKp1Q9fWOY7JlpU-231" value="&lt;b style=&quot;text-align: left; text-wrap: nowrap;&quot;&gt;&lt;u&gt;id_profesor : int(11)&lt;/u&gt;&lt;/b&gt;" style="ellipse;whiteSpace=wrap;html=1;" vertex="1" parent="1">
          <mxGeometry x="2030" y="695" width="165" height="82.5" as="geometry" />
        </mxCell>
        <mxCell id="256RreKp1Q9fWOY7JlpU-232" style="edgeStyle=none;curved=1;rounded=0;orthogonalLoop=1;jettySize=auto;html=1;entryX=0.016;entryY=0.582;entryDx=0;entryDy=0;entryPerimeter=0;fontSize=12;startSize=8;endSize=8;" edge="1" parent="1" source="256RreKp1Q9fWOY7JlpU-227" target="256RreKp1Q9fWOY7JlpU-230">
          <mxGeometry relative="1" as="geometry" />
        </mxCell>
        <mxCell id="256RreKp1Q9fWOY7JlpU-233" value="&lt;b style=&quot;text-align: left; text-wrap: nowrap;&quot;&gt;&lt;u&gt;observacion : varchar(500)&lt;/u&gt;&lt;/b&gt;" style="ellipse;whiteSpace=wrap;html=1;" vertex="1" parent="1">
          <mxGeometry x="2050" y="870" width="260" height="65" as="geometry" />
        </mxCell>
        <mxCell id="256RreKp1Q9fWOY7JlpU-234" style="edgeStyle=none;curved=1;rounded=0;orthogonalLoop=1;jettySize=auto;html=1;entryX=0;entryY=0.5;entryDx=0;entryDy=0;fontSize=12;startSize=8;endSize=8;" edge="1" parent="1" source="256RreKp1Q9fWOY7JlpU-238" target="256RreKp1Q9fWOY7JlpU-239">
          <mxGeometry relative="1" as="geometry" />
        </mxCell>
        <mxCell id="256RreKp1Q9fWOY7JlpU-235" style="edgeStyle=none;curved=1;rounded=0;orthogonalLoop=1;jettySize=auto;html=1;entryX=0;entryY=0.5;entryDx=0;entryDy=0;fontSize=12;startSize=8;endSize=8;" edge="1" parent="1" source="256RreKp1Q9fWOY7JlpU-238" target="256RreKp1Q9fWOY7JlpU-240">
          <mxGeometry relative="1" as="geometry" />
        </mxCell>
        <mxCell id="256RreKp1Q9fWOY7JlpU-236" style="edgeStyle=none;curved=1;rounded=0;orthogonalLoop=1;jettySize=auto;html=1;fontSize=12;startSize=8;endSize=8;" edge="1" parent="1" source="256RreKp1Q9fWOY7JlpU-238" target="256RreKp1Q9fWOY7JlpU-242">
          <mxGeometry relative="1" as="geometry" />
        </mxCell>
        <mxCell id="256RreKp1Q9fWOY7JlpU-237" style="edgeStyle=none;curved=1;rounded=0;orthogonalLoop=1;jettySize=auto;html=1;entryX=0;entryY=0.5;entryDx=0;entryDy=0;fontSize=12;startSize=8;endSize=8;" edge="1" parent="1" source="256RreKp1Q9fWOY7JlpU-238" target="256RreKp1Q9fWOY7JlpU-244">
          <mxGeometry relative="1" as="geometry" />
        </mxCell>
        <mxCell id="256RreKp1Q9fWOY7JlpU-238" value="sge notas" style="rounded=0;whiteSpace=wrap;html=1;" vertex="1" parent="1">
          <mxGeometry x="1880" y="1117.5" width="145" height="60" as="geometry" />
        </mxCell>
        <mxCell id="256RreKp1Q9fWOY7JlpU-239" value="&lt;div style=&quot;text-align: left;&quot;&gt;&lt;span style=&quot;background-color: initial; text-wrap: nowrap;&quot;&gt;&lt;b&gt;&lt;u&gt;id_nota : int(11)&lt;/u&gt;&lt;/b&gt;&lt;/span&gt;&lt;/div&gt;" style="ellipse;whiteSpace=wrap;html=1;" vertex="1" parent="1">
          <mxGeometry x="2060" y="982.5" width="225" height="65" as="geometry" />
        </mxCell>
        <mxCell id="256RreKp1Q9fWOY7JlpU-240" value="&lt;span style=&quot;font-weight: 700; text-align: left; text-wrap: nowrap; text-decoration-line: underline;&quot;&gt;id-estudiante : int(11)&lt;/span&gt;" style="ellipse;whiteSpace=wrap;html=1;" vertex="1" parent="1">
          <mxGeometry x="2070" y="1065" width="180" height="77.5" as="geometry" />
        </mxCell>
        <mxCell id="256RreKp1Q9fWOY7JlpU-241" value="&lt;b style=&quot;text-align: left; text-wrap: nowrap;&quot;&gt;&lt;u&gt;nota : decimal(5.2)&lt;/u&gt;&lt;/b&gt;" style="ellipse;whiteSpace=wrap;html=1;" vertex="1" parent="1">
          <mxGeometry x="2080" y="1257.5" width="200" height="57.5" as="geometry" />
        </mxCell>
        <mxCell id="256RreKp1Q9fWOY7JlpU-242" value="&lt;b style=&quot;text-align: left; text-wrap: nowrap;&quot;&gt;&lt;u&gt;id_materia : int(11)&lt;/u&gt;&lt;/b&gt;" style="ellipse;whiteSpace=wrap;html=1;" vertex="1" parent="1">
          <mxGeometry x="2060" y="1152.5" width="165" height="82.5" as="geometry" />
        </mxCell>
        <mxCell id="256RreKp1Q9fWOY7JlpU-243" style="edgeStyle=none;curved=1;rounded=0;orthogonalLoop=1;jettySize=auto;html=1;entryX=0.016;entryY=0.582;entryDx=0;entryDy=0;entryPerimeter=0;fontSize=12;startSize=8;endSize=8;" edge="1" parent="1" source="256RreKp1Q9fWOY7JlpU-238" target="256RreKp1Q9fWOY7JlpU-241">
          <mxGeometry relative="1" as="geometry" />
        </mxCell>
        <mxCell id="256RreKp1Q9fWOY7JlpU-244" value="&lt;b style=&quot;text-align: left; text-wrap: nowrap;&quot;&gt;&lt;u&gt;id_trimestre : int(11)&lt;/u&gt;&lt;/b&gt;" style="ellipse;whiteSpace=wrap;html=1;" vertex="1" parent="1">
          <mxGeometry x="2080" y="1327.5" width="260" height="65" as="geometry" />
        </mxCell>
        <mxCell id="256RreKp1Q9fWOY7JlpU-245" value="&lt;b style=&quot;text-align: left; text-wrap: nowrap;&quot;&gt;&lt;u&gt;fecha_calificacion : date&lt;/u&gt;&lt;/b&gt;" style="ellipse;whiteSpace=wrap;html=1;" vertex="1" parent="1">
          <mxGeometry x="2080" y="1412.5" width="260" height="65" as="geometry" />
        </mxCell>
        <mxCell id="256RreKp1Q9fWOY7JlpU-246" style="edgeStyle=none;curved=1;rounded=0;orthogonalLoop=1;jettySize=auto;html=1;entryX=0.022;entryY=0.752;entryDx=0;entryDy=0;entryPerimeter=0;fontSize=12;startSize=8;endSize=8;" edge="1" parent="1" source="256RreKp1Q9fWOY7JlpU-238" target="256RreKp1Q9fWOY7JlpU-245">
          <mxGeometry relative="1" as="geometry" />
        </mxCell>
        <mxCell id="256RreKp1Q9fWOY7JlpU-247" style="edgeStyle=none;curved=1;rounded=0;orthogonalLoop=1;jettySize=auto;html=1;entryX=0;entryY=0.5;entryDx=0;entryDy=0;fontSize=12;startSize=8;endSize=8;" edge="1" parent="1" source="256RreKp1Q9fWOY7JlpU-251" target="256RreKp1Q9fWOY7JlpU-252">
          <mxGeometry relative="1" as="geometry" />
        </mxCell>
        <mxCell id="256RreKp1Q9fWOY7JlpU-248" style="edgeStyle=none;curved=1;rounded=0;orthogonalLoop=1;jettySize=auto;html=1;entryX=0;entryY=0.5;entryDx=0;entryDy=0;fontSize=12;startSize=8;endSize=8;" edge="1" parent="1" source="256RreKp1Q9fWOY7JlpU-251" target="256RreKp1Q9fWOY7JlpU-253">
          <mxGeometry relative="1" as="geometry" />
        </mxCell>
        <mxCell id="256RreKp1Q9fWOY7JlpU-249" style="edgeStyle=none;curved=1;rounded=0;orthogonalLoop=1;jettySize=auto;html=1;fontSize=12;startSize=8;endSize=8;" edge="1" parent="1" source="256RreKp1Q9fWOY7JlpU-251" target="256RreKp1Q9fWOY7JlpU-255">
          <mxGeometry relative="1" as="geometry" />
        </mxCell>
        <mxCell id="256RreKp1Q9fWOY7JlpU-251" value="sge ausencias" style="rounded=0;whiteSpace=wrap;html=1;" vertex="1" parent="1">
          <mxGeometry x="1840" y="1795" width="145" height="60" as="geometry" />
        </mxCell>
        <mxCell id="256RreKp1Q9fWOY7JlpU-252" value="&lt;div style=&quot;text-align: left;&quot;&gt;&lt;span style=&quot;background-color: initial; text-wrap: nowrap;&quot;&gt;&lt;b&gt;&lt;u&gt;id_ausencia : int(11)&lt;/u&gt;&lt;/b&gt;&lt;/span&gt;&lt;/div&gt;" style="ellipse;whiteSpace=wrap;html=1;" vertex="1" parent="1">
          <mxGeometry x="2020" y="1660" width="225" height="65" as="geometry" />
        </mxCell>
        <mxCell id="256RreKp1Q9fWOY7JlpU-253" value="&lt;span style=&quot;font-weight: 700; text-align: left; text-wrap: nowrap; text-decoration-line: underline;&quot;&gt;id_estudiante : int(11)&lt;/span&gt;" style="ellipse;whiteSpace=wrap;html=1;" vertex="1" parent="1">
          <mxGeometry x="2030" y="1742.5" width="180" height="77.5" as="geometry" />
        </mxCell>
        <mxCell id="256RreKp1Q9fWOY7JlpU-254" value="&lt;b style=&quot;text-align: left; text-wrap: nowrap;&quot;&gt;&lt;u&gt;estado : enum(&#39;justificada&#39;,&#39;injustificada&#39;)&lt;/u&gt;&lt;/b&gt;" style="ellipse;whiteSpace=wrap;html=1;" vertex="1" parent="1">
          <mxGeometry x="2040" y="1935" width="260" height="96.25" as="geometry" />
        </mxCell>
        <mxCell id="256RreKp1Q9fWOY7JlpU-255" value="&lt;b style=&quot;text-wrap: nowrap; text-align: left;&quot;&gt;&lt;u&gt;fecha : date&lt;/u&gt;&lt;/b&gt;" style="ellipse;whiteSpace=wrap;html=1;" vertex="1" parent="1">
          <mxGeometry x="2020" y="1830" width="165" height="82.5" as="geometry" />
        </mxCell>
        <mxCell id="256RreKp1Q9fWOY7JlpU-256" style="edgeStyle=none;curved=1;rounded=0;orthogonalLoop=1;jettySize=auto;html=1;entryX=0.016;entryY=0.582;entryDx=0;entryDy=0;entryPerimeter=0;fontSize=12;startSize=8;endSize=8;" edge="1" parent="1" source="256RreKp1Q9fWOY7JlpU-251" target="256RreKp1Q9fWOY7JlpU-254">
          <mxGeometry relative="1" as="geometry" />
        </mxCell>
      </root>
    </mxGraphModel>
  </diagram>
</mxfile>
